<svg xmlns="http://www.w3.org/2000/svg" width="20.5" height="22.956" viewBox="0 0 20.5 22.956">
  <path id="路径_1896" data-name="路径 1896" d="M341.683,79.772h0a1.423,1.423,0,0,0-1.023.432,1.482,1.482,0,0,0-.424,1.044,1.5,1.5,0,0,0,.506,1.121c-.128.671-.356,1.086-.611,1.1h-.026a1.791,1.791,0,0,1-1.163-.723,1.494,1.494,0,0,0,.167-.868,1.466,1.466,0,0,0-1.36-1.313l-.074,0a1.428,1.428,0,0,0-1.025.431,1.487,1.487,0,0,0,.718,2.488l.714,2a10.174,10.174,0,0,0-4.751,3.172,8.08,8.08,0,0,0-1.9,5.167,8.307,8.307,0,0,0,3.022,6.317,11.381,11.381,0,0,0,14.456,0,8.307,8.307,0,0,0,3.022-6.317,8.08,8.08,0,0,0-1.9-5.167,10.172,10.172,0,0,0-4.752-3.172l.714-2a1.48,1.48,0,0,0-.233-2.917l-.07,0a1.463,1.463,0,0,0-1.447,1.475,1.506,1.506,0,0,0,.176.707,1.792,1.792,0,0,1-1.163.723h-.027c-.254-.01-.482-.424-.609-1.095a1.469,1.469,0,0,0-.938-2.6Z" transform="translate(-331.432 -79.772)" fill="#fff"/>
</svg>
