<svg xmlns="http://www.w3.org/2000/svg" xmlns:xlink="http://www.w3.org/1999/xlink" width="160.828" height="50.013" viewBox="0 0 160.828 50.013">
  <defs>
    <clipPath id="clip-path">
      <rect width="160.828" height="50.013" fill="none"/>
    </clipPath>
  </defs>
  <g id="重复网格_1" data-name="重复网格 1" clip-path="url(#clip-path)">
    <g id="组件_1_11" data-name="组件 1 – 11">
      <g id="组_3" data-name="组 3">
        <path id="路径_1" data-name="路径 1" d="M458.5,343.855l7.212-.583-.954,8.971-1.554.493-1.521-.3-2.878-6.817Z" transform="translate(-456.816 -332.76)" fill="#f9bf2c" fill-rule="evenodd"/>
        <path id="路径_2" data-name="路径 2" d="M479.051,394.811c.084.228,1.094.351,1.347.353.235-.267.444-.718.7-1.046.186-.236.465-.456.662-.355.122.063.071.448.006.656a7.473,7.473,0,0,1-.314.751,11.841,11.841,0,0,0-.524,1.454,11.263,11.263,0,0,0,1.237,9.482c2.183,3.546,5.925,5.158,9.94,5.647,6.2.755,13.033-1.87,14.732-8.351a14.053,14.053,0,0,0,.312-5.349,5.647,5.647,0,0,1-.136-1.123c.019-.2.1-.393.247-.437s.345.124.477.325a5.182,5.182,0,0,1,.56,1.8,15.035,15.035,0,0,1,.039,3.025c2.135-.211,1.834-3.5,1.363-4.926a12.1,12.1,0,0,0-3.647-5.015c-.743-.665-3.773.856-7.61-.554a4.709,4.709,0,0,1-2.095-1.371c-.668.037-1.273.134-1.974.14-.677.006-1.4-.118-2.028-.1-1.918,1.8-4.1,1.894-6.592,1.409a33.606,33.606,0,0,0-3.473-.661c-.047,0-.158,0-.191,0a7.832,7.832,0,0,1-1.429.006,11.787,11.787,0,0,1-1.779-.354c-.11-.022-.226-.042-.352-.058Z" transform="translate(-469.832 -362.976)" fill="#fff" fill-rule="evenodd"/>
        <path id="路径_3" data-name="路径 3" d="M499.792,349.7a9.165,9.165,0,0,0,2.465,1.09,6.46,6.46,0,0,0,5.635-.824,4.373,4.373,0,0,0,.865-.887c.486-.664.956-.129.814.256a5.107,5.107,0,0,1-1.8,1.712,7.342,7.342,0,0,1-5.846.518,12.784,12.784,0,0,1-2.427-1.1c-.245-.171-1.764-.123-2.639-1.015-2.094-2.137.794-4.176,2.017-2.457.378.532.308,1.344.92,2.7Zm8.4-3.662c.426.158,1.728-.023,1.263.836-.707,1.313-5.022,2.906-6.22,1.13a1.879,1.879,0,0,1,.941-2.9,2.571,2.571,0,0,1,1.789.311c-.547-2.551,1.052-3.572,2.215-2.96.241.128.966.87.755,1.094-.381.339-.383-.5-.911-.642a2.315,2.315,0,0,1,.28,1.114,1.154,1.154,0,0,0-.463.418l.513.323a3.25,3.25,0,0,1-.162,1.271Zm-6.628-1.411a2.7,2.7,0,0,1-.353,1.622c-1.062,1.355-2.727-.62-2.2-2.693.261-1.03,1.234-1.914,2.306-1.366.292.149.931.788.907,1.1-.027.351-.368.138-.51-.123a.838.838,0,0,0-.5-.477,2.462,2.462,0,0,1,.281,1.158l-.471.429a2.8,2.8,0,0,0,.541.353Zm-8.772,2.278c.469,5.453,6.21,8.376,11.16,8.242,5.038-.137,10.438-3.566,10.25-9.123a8.045,8.045,0,0,0-3.51-6.189,11.979,11.979,0,0,0-3.269-1.611c-.735-.258-1.192.062-1.949.169a16.34,16.34,0,0,1-4.606-.029,2.851,2.851,0,0,0-2.073.1,10.9,10.9,0,0,0-3.088,1.734,7.806,7.806,0,0,0-2.915,6.708Z" transform="translate(-479.08 -329.413)" fill="#fff" fill-rule="evenodd"/>
        <path id="路径_4" data-name="路径 4" d="M458.354,323.483c-.16.58-.841.325-1.273.334a2,2,0,0,0-.336,1.248,1.175,1.175,0,0,0,.779.874c2.025.665,8.425.056,6.46-2.2-.348.085-.65.275-.982.016-.129-.227.49-.592.5-1.316a1.552,1.552,0,0,0-.723-1.164c-.345.023-.58.236-.968.1-.177-.538,1.378-1.574.059-2.743a5.858,5.858,0,0,0-1.266-.707c-.718-.426-.543-.514-.894-1.085a2.056,2.056,0,0,0-1.143,2.535c.076.387.208.667-.093,1a3.45,3.45,0,0,0-1.049,1.47c-.259,1.162.7,1.2.932,1.63Z" transform="translate(-455.666 -315.589)" fill="#fff" fill-rule="evenodd"/>
        <path id="路径_5" data-name="路径 5" d="M512.714,319.709c-.017.6-.775,2.123-1.419,2.211-.751.1-1.816-1.341-1.984-1.717.619-1.175-.51-1.557-1.026-1.259-.477.274-.842,1.4.586,1.537.149.558.367,1.209.547,1.756a4.2,4.2,0,0,1,.432,1.823,15.106,15.106,0,0,0,6.264-.02c-.022-1.039-.047-.452.41-1.736.124-.345.637-1.672.637-1.672s.719.033.929-.466a.836.836,0,0,0-1.383-.909c-.408.468-.117.707-.022,1.11-.255.452-1.416,1.829-1.945,1.649-.74-.25-1.291-1.568-1.365-2.306.281-.306.555-.43.432-.978a.822.822,0,0,0-.811-.608c-.816.02-1.145,1.018-.283,1.585Z" transform="translate(-488.889 -316.419)" fill="#fff" fill-rule="evenodd"/>
        <path id="路径_6" data-name="路径 6" d="M462.236,351.706c.048-.073.926-.662,1.318-.583.244.051,1.358.293,1.511.362-.087.2-1.058.948-1.284.9-.163-.033-1.351-.58-1.545-.684Zm3.263-4.458.476-.51-.065.625s-.428-.115-.41-.115Zm-1.294-.584a12.654,12.654,0,0,0,1.245-.247l-.626.6s-.743-.312-.619-.353Zm-2.474,3.1c.244-.1,1.2-.667,1.3-.679a11.817,11.817,0,0,1,1.421.48,4.088,4.088,0,0,1-1.257.811,5.744,5.744,0,0,1-.8-.247c-.222-.085-.552-.175-.668-.365Zm2.017-1.131a11.262,11.262,0,0,1,.9-.7c.242-.194.218-.25.513-.147.2.068.465.127.659.2,0,.4-.443.8-.737,1.052a3.484,3.484,0,0,1-1.335-.4Zm-1.859-.932a5.764,5.764,0,0,1,.561-.4c.194-.141.331-.317.518-.444.115.033,1.126.5,1.245.57a4.333,4.333,0,0,1-1.189.9,2.556,2.556,0,0,1-1.134-.628Zm-.648-.368a1.421,1.421,0,0,1-.6-.485l1.229.034a1.277,1.277,0,0,1-.634.451Zm-1.263-1.166a16.449,16.449,0,0,0,.9,2.245l.014-.141.354-.174a5.249,5.249,0,0,1,1.076.646,4.156,4.156,0,0,1-1.156.577l.532,1.294c.1-.1-.068-.107.183-.043l.569.255a.778.778,0,0,1-.586.235,9.012,9.012,0,0,0,.614,1.583c.022-.151-.017-.061.05-.126.205.081.546.177.656.336a.763.763,0,0,1-.553.227c.109.415.205.392.645.454a1.728,1.728,0,0,0,.928-.039l-.841-.008a.966.966,0,0,1,1.325-.171c-.02.013-.042.017-.051.05s-.042.037-.053.045a.609.609,0,0,1-.051.045c.665-.127.754-.288.783-.926l-.117.3-.531-.115c.113-.229.412-.379.606-.543l.013.339c.078-.1.568-3.426.186-1.6a4.918,4.918,0,0,1-1.324-.3,4.261,4.261,0,0,1,.659-.5c.294-.224.427-.433.8-.381.124,1.069.255-1.939.264-2.017.095-.793.221-1.631.275-2.423a4.528,4.528,0,0,1-.566.438,6.154,6.154,0,0,1-2.219.563,11.08,11.08,0,0,1-1.787.056,8.255,8.255,0,0,1-.852-.105c-.568-.1-.623-.2-.693-.138a.523.523,0,0,0-.051.065Z" transform="translate(-457.776 -334.072)" fill="#f29600" fill-rule="evenodd"/>
        <path id="路径_7" data-name="路径 7" d="M527,358.872a8.582,8.582,0,0,1-2.227-.618,2.572,2.572,0,0,0-1.789-.311,1.879,1.879,0,0,0-.942,2.9c1.2,1.776,5.513.184,6.22-1.129.465-.859-.837-.678-1.263-.836Z" transform="translate(-497.882 -342.251)" fill="#f29600" fill-rule="evenodd"/>
        <path id="路径_8" data-name="路径 8" d="M512.974,351.853a2.8,2.8,0,0,1-.541-.353l.471-.429a2.463,2.463,0,0,0-.281-1.158.839.839,0,0,1,.5.477c.141.261.483.474.51.123.023-.309-.615-.948-.907-1.1-1.072-.548-2.045.336-2.306,1.366-.527,2.073,1.139,4.048,2.2,2.693a2.694,2.694,0,0,0,.353-1.622Z" transform="translate(-490.487 -336.643)" fill="#0b308e" fill-rule="evenodd"/>
        <path id="路径_9" data-name="路径 9" d="M511.6,369.435c-.022.258-.105.193-.1.511-.227.079-.409.015-.557.111.02.009.4.164.42.173a12.16,12.16,0,0,0,2.37,1.069,7.342,7.342,0,0,0,5.846-.518,5.109,5.109,0,0,0,1.8-1.712c.141-.386-.328-.92-.814-.256a4.375,4.375,0,0,1-.865.887,6.459,6.459,0,0,1-5.635.824,9.162,9.162,0,0,1-2.465-1.09Z" transform="translate(-490.892 -349.152)" fill="#0b308e" fill-rule="evenodd"/>
        <path id="路径_10" data-name="路径 10" d="M530.257,353.136a8.582,8.582,0,0,0,2.227.618,3.251,3.251,0,0,0,.162-1.271l-.513-.323a1.154,1.154,0,0,1,.463-.418,2.316,2.316,0,0,0-.28-1.114c.528.138.53.98.911.642.211-.224-.515-.966-.755-1.094-1.162-.612-2.761.409-2.214,2.96Z" transform="translate(-503.369 -337.133)" fill="#0b308e" fill-rule="evenodd"/>
        <path id="路径_11" data-name="路径 11" d="M468.515,388.4c-1.378.319-.362,3.374.5,3.841-.019-.421-.41-3.641-.5-3.841Z" transform="translate(-462.884 -362.085)" fill="#fff" fill-rule="evenodd"/>
        <path id="路径_12" data-name="路径 12" d="M467.814,370.879c-.013,1.643,3.294,1.218,2.8-.242-.126-.147-.569.219-1.305.317a10.567,10.567,0,0,1-1.495-.075Z" transform="translate(-462.868 -350.518)" fill="#f9bf2c" fill-rule="evenodd"/>
        <path id="路径_13" data-name="路径 13" d="M469.233,376.616c-.144,1.379,2.924,1.1,2.3-.233-.166-.017-.777.227-1.079.261-.376.043-1.019-.075-1.224-.028Z" transform="translate(-463.786 -354.274)" fill="#f9bf2c" fill-rule="evenodd"/>
        <g id="组_2" data-name="组 2" transform="translate(7.206 16.937)">
          <g id="组_1" data-name="组 1" transform="translate(5.512 6.773)">
            <path id="路径_14" data-name="路径 14" d="M553.1,432.522a15.624,15.624,0,0,0,5.238-1.688c1.007-.7.8-1.416.555-2.475a23.971,23.971,0,0,0-.716-2.738,4.069,4.069,0,0,1-1.554.478c-.107.272-.177.7-.263,1.006a12.081,12.081,0,0,1-1.082,2.643,11.7,11.7,0,0,1-2.179,2.774Z" transform="translate(-531.003 -409.977)" fill="#e40055" fill-rule="evenodd"/>
            <path id="路径_15" data-name="路径 15" d="M533.386,383.827a7.564,7.564,0,0,0,3.462,1.069,22.02,22.02,0,0,0,4.217-.224c0-.2-.488-.659-.654-.822-.515-.5-.392-.337-.466-1.068a2.425,2.425,0,0,0-1.321-1.753c-.1.048-.9.727-1.139.892a13.62,13.62,0,0,1-1.254.768,11.122,11.122,0,0,1-1.389.643c-.247.095-1.374.435-1.456.494Z" transform="translate(-518.191 -381.004)" fill="#e40055" fill-rule="evenodd"/>
            <path id="路径_16" data-name="路径 16" d="M490,383.668c.32.123,1.63.326,2.082.422.685.148,1.408.3,2.1.42a6.478,6.478,0,0,0,2.334-.006,7.321,7.321,0,0,0,1.8-.676,10.948,10.948,0,0,0-1.532-.545,11.84,11.84,0,0,1-1.394-.642,15.312,15.312,0,0,1-2.449-1.686,2.647,2.647,0,0,0-1.462,1.414c-.216.513-.241.462-.721.707-.233.118-.682.379-.763.592Z" transform="translate(-490.002 -380.955)" fill="#e40055" fill-rule="evenodd"/>
          </g>
          <path id="路径_17" data-name="路径 17" d="M506.12,365.615c.037-.009.119-.035.119-.035s-.124-.328-.232-.619c-.612-1.36-.542-2.172-.92-2.7-1.223-1.719-4.111.32-2.017,2.457a4.346,4.346,0,0,0,2.4.938A2.406,2.406,0,0,0,506.12,365.615Z" transform="translate(-492.501 -361.615)" fill="#e40055" fill-rule="evenodd"/>
          <path id="路径_18" data-name="路径 18" d="M486.618,437.423a12.746,12.746,0,0,1-1.907-2.134,20.287,20.287,0,0,1-1.489-2.556l.5,4.2a20.128,20.128,0,0,0,2.9.486Z" transform="translate(-480.086 -407.825)" fill="#e40055" fill-rule="evenodd"/>
          <path id="路径_19" data-name="路径 19" d="M474.678,432.724a11.092,11.092,0,0,0-.4,1.905,1.23,1.23,0,0,0,.847,1.425Z" transform="translate(-474.265 -407.819)" fill="#e40055" fill-rule="evenodd"/>
        </g>
        <path id="路径_20" data-name="路径 20" d="M470.573,380.872l2.236-.1,2.418,25.031-.23.609-.97-.082-.429-.954s-2.993-24.489-3.026-24.5Z" transform="translate(-464.66 -357.127)" fill="#f9bf2c" fill-rule="evenodd"/>
        <path id="路径_21" data-name="路径 21" d="M461.31,355.1l.446,3.33a1.23,1.23,0,0,1-.847-1.425,11.084,11.084,0,0,1,.4-1.905Zm27.2,4.413a11.7,11.7,0,0,0,2.179-2.774,12.081,12.081,0,0,0,1.081-2.643c.085-.306.156-.733.263-1.005a4.069,4.069,0,0,0,1.554-.478,23.951,23.951,0,0,1,.716,2.738c.242,1.06.452,1.773-.555,2.475a15.624,15.624,0,0,1-5.238,1.688Zm-24.474-4.41a20.279,20.279,0,0,0,1.489,2.556,12.748,12.748,0,0,0,1.907,2.134,20.119,20.119,0,0,1-2.9-.486Zm-4.712-15.526c.092.2.483,3.42.5,3.841-.864-.468-1.88-3.523-.5-3.841Zm3.069.863a9.509,9.509,0,0,0,3.63.409,26.235,26.235,0,0,1,3.594.656c2.5.485,4.674.388,6.592-1.409.629-.016,1.35.109,2.028.1.7-.006,1.305-.1,1.974-.14a4.709,4.709,0,0,0,2.095,1.371c3.837,1.411,6.867-.11,7.609.554A12.1,12.1,0,0,1,493.561,347c.471,1.422.772,4.715-1.363,4.926a15.039,15.039,0,0,0-.039-3.025,4.447,4.447,0,0,0-.678-1.952c-.357-.388-.586-.123-.611.312a6.635,6.635,0,0,0,.14,1.077,14.051,14.051,0,0,1-.312,5.349c-1.7,6.481-8.528,9.106-14.732,8.351-4.015-.49-7.757-2.1-9.94-5.647a11.263,11.263,0,0,1-1.237-9.482,11.852,11.852,0,0,1,.524-1.454,3.441,3.441,0,0,0,.395-1.1c.022-.3-.081-.429-.362-.3-.493.222-.748,1.007-1.09,1.4-.253,0-1.263-.124-1.347-.353Zm19.211-.648c.082-.059,1.209-.4,1.456-.494a11.123,11.123,0,0,0,1.389-.643,13.614,13.614,0,0,0,1.254-.768c.241-.165,1.036-.844,1.139-.892a2.425,2.425,0,0,1,1.321,1.753c.075.73-.048.569.466,1.068.166.163.653.622.654.822a22.018,22.018,0,0,1-4.218.224,7.564,7.564,0,0,1-3.462-1.069Zm-15.195-.11c.081-.213.53-.474.763-.592.48-.245.505-.194.721-.707a2.647,2.647,0,0,1,1.462-1.414,15.314,15.314,0,0,0,2.449,1.686,11.855,11.855,0,0,0,1.394.642,10.944,10.944,0,0,1,1.532.545,7.322,7.322,0,0,1-1.8.676,6.476,6.476,0,0,1-2.334.006c-.695-.117-1.417-.272-2.1-.42-.452-.1-1.762-.3-2.082-.422Zm-6.326-2.244,1-.075c.926,8.116,1.887,16.38,2.814,24.495-.006.306-.62.387-.75.109Zm-.945-1.837c.205-.047.849.072,1.224.028.3-.034.912-.278,1.079-.261.621,1.33-2.447,1.611-2.3.233Zm-.5-1.981a10.557,10.557,0,0,0,1.495.075c.737-.1,1.179-.464,1.305-.317.494,1.461-2.813,1.885-2.8.242Zm8.769-2.873a7.806,7.806,0,0,1,2.915-6.708,10.9,10.9,0,0,1,3.088-1.734,2.851,2.851,0,0,1,2.073-.1,16.338,16.338,0,0,0,4.606.029c.757-.107,1.214-.427,1.949-.169a11.98,11.98,0,0,1,3.269,1.611,8.044,8.044,0,0,1,3.51,6.189c.188,5.557-5.212,8.986-10.25,9.123-4.951.133-10.691-2.789-11.16-8.242Zm-6.216.883c-.048,1.072-1.148,1.125-2.009,1-.433-.061-.528-.037-.635-.452-.272-.8-.622-1.659-.918-2.467-.594-1.47-1.1-2.96-1.688-4.446-.057-.226-.129-.243-.132-.485.914-.077,2.269.508,4.938-.188.409-.107.956-.367,1.326-.421l-.015.211c-.052.721-.891,7.227-.866,7.246Zm-4.811-10.477c-.236-.426-1.192-.468-.932-1.63a3.45,3.45,0,0,1,1.049-1.47c.3-.336.169-.615.093-1a2.056,2.056,0,0,1,1.143-2.535c.351.571.176.659.894,1.085a5.858,5.858,0,0,1,1.266.707c1.319,1.169-.236,2.205-.059,2.743.388.134.623-.079.968-.1a1.552,1.552,0,0,1,.723,1.164c-.008.724-.626,1.089-.5,1.316.333.259.634.07.982-.016,1.966,2.252-4.435,2.861-6.46,2.2a1.175,1.175,0,0,1-.779-.874,2,2,0,0,1,.336-1.248c.432-.009,1.113.246,1.273-.334Zm26.5-4.188c-.226.493-.505.387-.912.506-.05.053-.993,2.475-1.041,2.7a4,4,0,0,0-.006.707,15.107,15.107,0,0,1-6.264.02,4.2,4.2,0,0,0-.432-1.823c-.18-.547-.4-1.2-.547-1.756-1.428-.137-1.063-1.263-.586-1.537.516-.3,1.644.084,1.025,1.259.168.376,1.234,1.82,1.984,1.717.643-.089,1.4-1.61,1.419-2.211-.862-.567-.533-1.565.283-1.585a.822.822,0,0,1,.811.608c.123.547-.151.671-.432.978.073.738.625,2.056,1.365,2.306.53.18,1.691-1.2,1.946-1.649-.095-.4-.379-.636.022-1.11a.822.822,0,0,1,1.366.869Zm-21.508,1.064a2.2,2.2,0,0,0-.323-2c-.761-1.148-1.98-1.2-2.188-1.6-.171-.334.258-.676-.107-1.037-.556-.548-3.832.548-3.211,3.764.083.427-.1.415-.384.76a3.013,3.013,0,0,0-.789,1.754c-.039.878.248.654-.017,1.055a2.686,2.686,0,0,0-.4,2.834c.351.612.174.23.3.913.157.858.4.362.873,1.643.222.6.444,1.2.67,1.793l1.708,4.552c.179.485.251.426.13.931a1.665,1.665,0,0,0,.693,1.74,1.394,1.394,0,0,0-.107.937,1.512,1.512,0,0,0,.575.855.73.73,0,0,1,.292.542,7.641,7.641,0,0,1,.1.948c-.58.309-1.487.44-1.678,2.033a4.661,4.661,0,0,0,.8,2.928,5.375,5.375,0,0,0,1.461,1.507.712.712,0,0,1,.306.446l.833,6.636c.028.781-1.613,4.671-1.018,6.164a2.414,2.414,0,0,0,.844,1.021c1.462,1.027,1.057-.265,1.465,2.58.09.634.2,1.068.915,1.243a1.312,1.312,0,0,0,1.507-.562c.286-.482.033-1.324.036-1.911,1.307.191,2.574.409,3.891.558a3.482,3.482,0,0,1,1.68.494,18.458,18.458,0,0,0,9.188,1.667,15.876,15.876,0,0,0,6.741-2.008c.679-.387,4.531-.807,6.929-1.79,3.2-1.312,2.73-2.752,2.006-5.627-.141-.564-.283-1.186-.455-1.738-.226-.713.135-.931.287-1.659a7.106,7.106,0,0,0-.292-3.765,10.742,10.742,0,0,0-1.529-2.858,26.1,26.1,0,0,0-2.045-2.284c-.251-.35-.408-.965-.744-1.447-.194-.28-.928-1.043-.985-1.21a3.8,3.8,0,0,0-.57-1.621,3.089,3.089,0,0,0-1.113-1.024,10.516,10.516,0,0,0,2.124-4.322,9.063,9.063,0,0,0-3.472-8.915,14.309,14.309,0,0,0-1.955-1.229,19.927,19.927,0,0,0-2.27-.9,1.657,1.657,0,0,1-.006-.514,7.063,7.063,0,0,1,.78-2.042c.073-.1.193-.1.25-.133a1.821,1.821,0,1,0-2.769-1.848,1.589,1.589,0,0,0,.051.689l-.663.707-.407-.963a2.006,2.006,0,0,0,.3-.689,1.82,1.82,0,1,0-3.6-.545c-.008.078-.015.165-.022.258a1.267,1.267,0,0,0,.325,1.024l-.4.777-.637-.732a1.761,1.761,0,0,0-.39-1.5l0-.011a1.757,1.757,0,0,0-.378-.35,1.823,1.823,0,0,0-2.762,2.043c.212.645.453.614.9,1a.415.415,0,0,1,.064.1,14.58,14.58,0,0,1,.765,2.219,1.068,1.068,0,0,1-.006.629c-.144.27-4.668,1.21-6.584,5.749a8.8,8.8,0,0,0,.945,8.474c.2.286.5.628.659.893-.124.168-.775.588-1.018.866-.177.2-.689,1.04-.732,1.075a6.7,6.7,0,0,0-1.061.749,2.7,2.7,0,0,0-.747,1.058,7.228,7.228,0,0,1-2.693-.671L462,336.759a1.468,1.468,0,0,0,.483-.976c.028-.483-.173-.661-.362-1.037a1.6,1.6,0,0,0,.25-1.689c-.207-.5-.252-.236-.175-.881.034-.3.076-.6.11-.9.146-1.282.312-2.592.429-3.876.028-.306.274-2.628.359-2.859.482-1.305-.008-1.069.23-1.8a2.406,2.406,0,0,0-.771-2.3,2.115,2.115,0,0,0-.312-1.5,5.563,5.563,0,0,0-.877-.916Z" transform="translate(-453.691 -313.258)" fill="#231815" fill-rule="evenodd"/>
      </g>
      <g id="组_69" data-name="组 69" transform="translate(47.745 3.516)">
        <g id="组_5" data-name="组 5" transform="translate(0 0)">
          <path id="路径_22" data-name="路径 22" d="M689.089,356.705c-.907.971-.665,1.606-.3,1.967a1.117,1.117,0,0,0,.8.35,1.507,1.507,0,0,0,1.045-.5c.282-.272.729-.731,1.088-1.1l.3-.3a3.238,3.238,0,0,0,.443-.506c.683-.829-.179-1.658-.466-1.932-.365-.352-.448-.442-.519-.52-.1-.108-.181-.192-.71-.689a1.918,1.918,0,0,0-1.216-.625,1.051,1.051,0,0,0-.751.319c-.195.2-.759.9.152,1.849.228.236.585.586.911.9-.033.031-.057.055-.082.077C689.671,356.1,689.585,356.175,689.089,356.705Z" transform="translate(-653.972 -342.497)" fill="#e40055"/>
          <path id="路径_23" data-name="路径 23" d="M721.955,354.981c.9-.929.338-1.626.147-1.817a1.027,1.027,0,0,0-.743-.318,1.889,1.889,0,0,0-1.194.613c-.515.483-.593.566-.69.671-.069.078-.15.161-.505.506-.28.268-1.126,1.082-.454,1.9a2.935,2.935,0,0,0,.421.481l.3.308c.35.359.784.807,1.059,1.07a1.486,1.486,0,0,0,1.028.494,1.105,1.105,0,0,0,.791-.344c.357-.357.595-.982-.295-1.936-.483-.515-.567-.594-.674-.693-.02-.018-.041-.036-.068-.063C721.393,355.544,721.736,355.209,721.955,354.981Z" transform="translate(-673.345 -342.497)" fill="#e40055"/>
          <path id="路径_24" data-name="路径 24" d="M699.031,329.062a1.5,1.5,0,0,0-1.077-.44c-.062,0-.122,0-.186,0-3.489-.029-20.653,0-20.653,0-.14,0-.312-.018-.537-.015-.141-.009-.211,0-.319,0a1.491,1.491,0,0,0-1.515,1.375,1.411,1.411,0,0,0,1.411,1.53c.411.032.727.037.951.045h7.616c.109,0,.867.138.877.774a1.1,1.1,0,0,1-.833.993c-.8.039-5.5-.015-5.98,0a3.765,3.765,0,0,0-3.765,3.876c-.018.557-.045,1.007-.07,1.443a17.966,17.966,0,0,0-.033,2.587l0,.047c.011.2.041.5.052.561.118.726.537,1.335,1.274,1.335a1.419,1.419,0,0,0,1.379-1.3c.027-.233.02-.454.029-.583l0-.065c.063-.92.071-1.388.079-2.169.007-.537.011-1.1.037-1.728.045-1.117.616-1.451.956-1.463.954-.034,6.138,0,6.594,0,0,.4,0,.773-.008,1.134-.014,1.271-.025,2.37.051,3.726s.587,2.16,1.4,2.171c.431,0,1.44-.216,1.485-2.24l.011-.437c.01-.428.022-.868.022-1.3v-3.079c.5,0,4.961.013,6.325-.008a1.722,1.722,0,0,1,1.26.367,1.693,1.693,0,0,1,.377,1.3c0,.365,0,2.466.051,3.6a3.254,3.254,0,0,0,.193,1.092,1.332,1.332,0,0,0,2.36.437,2.51,2.51,0,0,0,.4-1.59c.021-.294.1-2.238.071-3.528a4.006,4.006,0,0,0-4.148-4.135c-.617-.014-5.241,0-6.027,0a.909.909,0,1,1-.027-1.817s7.33.013,8.66,0c.07,0,.114,0,.171,0a1.423,1.423,0,0,0,1.434-1.084,1.549,1.549,0,0,0,.047-.491,1.212,1.212,0,0,0-.127-.508A1.108,1.108,0,0,0,699.031,329.062Z" transform="translate(-645.068 -326.746)" fill="#e40055"/>
          <path id="路径_25" data-name="路径 25" d="M695.425,373.957c-3.8-.014-9.071-.012-12.866-.007l-4.27,0H677.5c-.092.006-.127,0-.191,0a1.358,1.358,0,0,0-1.384,1.333,1.287,1.287,0,0,0,1.384,1.24c.05,0,.063,0,.15,0,.2.008.321.008.456.008.109,0,15.451-.007,17.767,0,.594,0,.67.016.836.16a.836.836,0,0,1,.17.533v.656h-19.52a1.272,1.272,0,0,0-1.243,1.23,1.216,1.216,0,0,0,1.148,1.191l.062,0h.044l19.413.011c.053,1.044-.045,1.13-.162,1.2s-.3.12-1.01.12H677.345c-.012,0-.025,0-.036,0s-.024,0-.035,0h-.044a.9.9,0,0,0-.212.029c-.624.129-1.093.482-1.093,1.121,0,.008,0,.016,0,.025s0,.014,0,.023a1.129,1.129,0,0,0,.665,1.088,1.38,1.38,0,0,0,.578.188,5.071,5.071,0,0,0,.926.083c3.4.047,15.422,0,15.422,0,2.986,0,4.779.459,5.8-1.2.632-1.031.461-4.857.461-4.857C699.619,374.394,698.775,373.968,695.425,373.957Z" transform="translate(-645.836 -356.207)" fill="#e40055"/>
          <path id="路径_26" data-name="路径 26" d="M789.684,325.983a1.479,1.479,0,0,0-1.029-.391,1.646,1.646,0,0,0-1.585,1.781c-.009.255-.024,16.006.007,19.926a3.186,3.186,0,0,1-.474,2.207,1.914,1.914,0,0,1-1.4.412s-1.694.022-1.694,1.436c0,.779.421,1.4,1.569,1.555a6.539,6.539,0,0,0,.858.08,4.182,4.182,0,0,0,4.216-4.267c.06-2.271.016-19.987.047-21.223A2.224,2.224,0,0,0,789.684,325.983Z" transform="translate(-715.741 -324.788)" fill="#e40055"/>
          <path id="路径_27" data-name="路径 27" d="M809.027,346.152c-.144-.858-.187-1.416-.239-2.063-.033-.374-.065-.785-.12-1.3.186,0,2.645,0,3.064-.012a1.656,1.656,0,0,0,1.686-1.6,1.435,1.435,0,0,0-.424-1.047,1.813,1.813,0,0,0-1.228-.527h-4.618a1.573,1.573,0,0,0-1.211.507,1.848,1.848,0,0,0-.4,1.463c.623,7.109,1.336,12.519,4.678,18.372a7.927,7.927,0,0,0,.551.85,2.173,2.173,0,0,0,1.6,1,1.161,1.161,0,0,0,.782-.3c.689-.616.345-1.9.006-2.447C811,355.542,809.927,351.563,809.027,346.152Z" transform="translate(-730.049 -333.891)" fill="#e40055"/>
          <path id="路径_28" data-name="路径 28" d="M775.37,340.109a1.58,1.58,0,0,0-1.213-.507h-4.616a1.814,1.814,0,0,0-1.228.526,1.431,1.431,0,0,0-.423,1.048,1.654,1.654,0,0,0,1.684,1.6c.42.012,2.879.014,3.065.012-.055.518-.088.928-.12,1.3-.052.646-.1,1.2-.239,2.062-.9,5.411-1.978,9.391-4.128,12.89-.337.551-.683,1.832.007,2.448a1.155,1.155,0,0,0,.781.3,2.176,2.176,0,0,0,1.6-1,7.85,7.85,0,0,0,.55-.851c3.342-5.853,4.057-11.264,4.678-18.372A1.846,1.846,0,0,0,775.37,340.109Z" transform="translate(-705.507 -333.891)" fill="#e40055"/>
          <path id="路径_29" data-name="路径 29" d="M758.056,347.62c-1.365,0-1.546,1.085-1.562,1.712-.076,2.84.007,14.647,0,15.662-.031.637.253,2.008,1.476,1.95,1.119-.054,1.441-.979,1.471-1.938.107-3.77.052-11.86,0-15.38C759.43,348.969,759.4,347.621,758.056,347.62Z" transform="translate(-698.165 -339.101)" fill="#e40055"/>
          <path id="路径_30" data-name="路径 30" d="M757.857,329.366a.684.684,0,0,0-.453-.209.828.828,0,0,0-.55.267l-.622.76a2.077,2.077,0,0,0-.738,1.536,1.852,1.852,0,0,0,1.859,1.808h.057a1.864,1.864,0,0,0,1.807-1.918,2.9,2.9,0,0,0-.7-1.414A8.336,8.336,0,0,0,757.857,329.366Z" transform="translate(-697.537 -327.105)" fill="#e40055"/>
          <path id="路径_31" data-name="路径 31" d="M898.874,328.667h.053a1.734,1.734,0,0,0,1.679-1.782,2.7,2.7,0,0,0-.647-1.315,7.741,7.741,0,0,0-.617-.771.638.638,0,0,0-.422-.193.771.771,0,0,0-.511.248l-.578.707a1.92,1.92,0,0,0-.686,1.427A1.723,1.723,0,0,0,898.874,328.667Z" transform="translate(-789.576 -324.146)" fill="#e40055"/>
          <path id="路径_32" data-name="路径 32" d="M861.8,348.811a20.276,20.276,0,0,1-2.684-4.667,14.027,14.027,0,0,0,2.344-7.261,1.478,1.478,0,0,0-1.474-1.478h-.006a1.482,1.482,0,0,0-1.48,1.472,10.915,10.915,0,0,1-.724,3.476,55.775,55.775,0,0,1-1.734-8.806l4.092-.047a1.614,1.614,0,0,0,1.275-.451,1.59,1.59,0,0,0,.373-1.239c-.07-.972-.926-1.286-1.763-1.3-.239,0-2.1,0-4.277,0-.171-2.222-.18-3.682-.18-3.73a1.48,1.48,0,0,0-2.96,0c0,.195.007,1.61.159,3.733-2.032,0-3.828.009-4.338.017-2.028.03-4.495.786-4.636,4.864-.1,2.775-.2,4.836-.3,6.829-.07,1.439-.14,2.833-.2,4.431a1.8,1.8,0,0,0-.629-.108,11.243,11.243,0,0,0-1.267.393v-12.9c.181-.013.419,0,.653-.008.03,0,.056.008.087.008a1.487,1.487,0,0,0,.37-.049.75.75,0,0,0,.075-.015,1.09,1.09,0,0,0,.156-.056.1.1,0,0,1,.021-.01,1.571,1.571,0,0,0,.167-.091,1.55,1.55,0,0,0-.789-2.887c-.021,0-.041.005-.061.007-.151-.007-.363-.007-.722-.009.009-.557.028-.98.045-1.682l.013-.577a2.858,2.858,0,0,0-.632-2.039,1.42,1.42,0,0,0-1.03-.434c-.73,0-1.593.573-1.622,2.189-.013.654,0,.952.018,1.629.005.3.014.606.017.9-.073,0-.148,0-.219,0l-.4.009-.038,0c-.071,0-.139,0-.2.009-.035,0-.067-.011-.1-.011a1.551,1.551,0,0,0-.084,3.1,9.415,9.415,0,0,0,1.051.008c0,.817,0,2.289,0,3.195,0,3.031-.012,6.466.02,9.457.015,1.25-.107,1.681-.906,1.95a2.127,2.127,0,0,0-1.161,1.024,1.485,1.485,0,0,0-.041,1.189,1.425,1.425,0,0,0,1.409.948,2.591,2.591,0,0,0,.813-.143,32.36,32.36,0,0,0,4.617-1.849c.084-.045.178-.1.272-.164,0,.165-.012.33-.014.5,0,.119-.01.245-.019.379a3.578,3.578,0,0,0,.475,2.562,1.313,1.313,0,0,0,.979.4c1.517,0,1.267-2.052,1.31-3.152l0-.078c.066-1.672.121-2.925.173-4.065.092-2.034.164-4.086.252-7.037.161,0,.277,0,.382-.005.151,0,.284-.007.523-.007h.1c.9,0,1.664.024,1.886.263a4.34,4.34,0,0,1,.263,2.1l0,1.572c0,1.456.005,2.164.014,4.5,0,1.424-.2,1.807-1.056,1.865a1.609,1.609,0,0,0-1.082.544,1.305,1.305,0,0,0-.339.977,1.516,1.516,0,0,0,1.439,1.43c2.086.066,3.583-1.613,3.612-4.066.043-3.807.048-3.824-.008-7.686-.042-2.806-.664-4.17-4.09-4.311-.649-.026-.88-.017-1.188,0l-.258.01c.154-2.757.408-2.7,2.4-2.7l4.108-.048a54.154,54.154,0,0,0,2.68,12.042,8.879,8.879,0,0,1-2.325,1.716,1.48,1.48,0,1,0,1.355,2.632,12.033,12.033,0,0,0,2.189-1.443,21.926,21.926,0,0,0,2.533,4.123,1.48,1.48,0,1,0,2.318-1.842Z" transform="translate(-749.612 -323.297)" fill="#e40055"/>
          <g id="组_4" data-name="组 4" transform="translate(0 0.453)">
            <path id="路径_33" data-name="路径 33" d="M591.742,352.754h.054a1.793,1.793,0,0,0,1.68-1.887,2.942,2.942,0,0,0-.649-1.393,8.371,8.371,0,0,0-.616-.816.625.625,0,0,0-.421-.2.757.757,0,0,0-.513.263l-.577.748a2.077,2.077,0,0,0-.687,1.511A1.771,1.771,0,0,0,591.742,352.754Z" transform="translate(-590.013 -340.096)" fill="#e40055"/>
            <path id="路径_34" data-name="路径 34" d="M624.392,343.656a1.734,1.734,0,0,0,1.68-1.781,2.709,2.709,0,0,0-.647-1.317,7.5,7.5,0,0,0-.618-.769.636.636,0,0,0-.421-.194.775.775,0,0,0-.511.247l-.579.706a1.931,1.931,0,0,0-.685,1.43,1.72,1.72,0,0,0,1.728,1.678Z" transform="translate(-611.194 -334.34)" fill="#e40055"/>
            <path id="路径_35" data-name="路径 35" d="M658.325,348.658a.618.618,0,0,0-.42-.2.752.752,0,0,0-.511.262l-.579.748a2.076,2.076,0,0,0-.685,1.511,1.769,1.769,0,0,0,1.728,1.78h.054a1.792,1.792,0,0,0,1.677-1.888,2.945,2.945,0,0,0-.647-1.392A8.409,8.409,0,0,0,658.325,348.658Z" transform="translate(-632.973 -340.096)" fill="#e40055"/>
            <path id="路径_36" data-name="路径 36" d="M592.717,332.159a1.3,1.3,0,0,0,1.3-1.3c0-.021.024-.2.03-.262.08-.968.5-1.126,1.486-1.126h0q4.336.02,8.673.02c2.877,0,5.794-.006,8.668-.02h.032c1.047,0,1.49.172,1.528,1.232a1.381,1.381,0,0,0,.546,1.128,1.3,1.3,0,0,0,.8.274,1.393,1.393,0,0,0,.295-.034,1.032,1.032,0,0,0,.6-.316,1.51,1.51,0,0,0,.427-.972v-.213a3.487,3.487,0,0,0-.88-2.54,4.11,4.11,0,0,0-3.018-1.247c-1.156-.029-4.218-.042-7.159-.047a3.4,3.4,0,0,0-.184-1.023,1.908,1.908,0,0,0-1.75-1.123,1.682,1.682,0,0,0-1.605.961,3.572,3.572,0,0,0-.239,1.185c-2.939.006-5.869.018-6.994.042-2.405.052-3.784,1.387-3.848,3.479,0,.14-.014.528-.014.6A1.3,1.3,0,0,0,592.717,332.159Z" transform="translate(-590.925 -324.591)" fill="#e40055"/>
            <path id="路径_37" data-name="路径 37" d="M600.8,351.42a1.224,1.224,0,0,0-.9.929.865.865,0,0,0-.026.216v.01a1.225,1.225,0,0,0,1.223,1.23,5.267,5.267,0,0,0,1.778-.492l.051-.019c2.878-.965,4.776-1.6,6.648-2.224.551.185,1.112.376,1.707.578l4.742,1.605a12.77,12.77,0,0,0,1.684.5,1.227,1.227,0,0,0,.387.068,1.369,1.369,0,0,0,.275-.028.717.717,0,0,0,.368-.14,1.2,1.2,0,0,0,.613-1.026,1.213,1.213,0,0,0-.883-1.179,4.942,4.942,0,0,0-.65-.223l-.109-.036c-.748-.251-2.135-.723-3.786-1.285-.141-.049-.283-.1-.426-.145l3.421-1.143a14.5,14.5,0,0,0,1.374-.495,1.224,1.224,0,0,0,.657-.5,1.363,1.363,0,0,0,.088-.157v0a.194.194,0,0,1,.008-.019c.012-.029.024-.059.036-.091,0,0,0,0,0-.006a1,1,0,0,0,.007-.729s0,0,0,0a1.222,1.222,0,0,0-.636-.727.932.932,0,0,0-.429-.124h-.063a.364.364,0,0,0-.039,0,1.329,1.329,0,0,0-.338.041,7.232,7.232,0,0,0-1.138.335l-.106.036c-.724.246-2.062.69-3.665,1.222-.973.323-2.031.674-3.1,1.033-2.852-.967-6.493-2.105-7.847-2.52-.04-.015-.082-.026-.123-.038l-.024-.007a.053.053,0,0,0,.014,0,1.287,1.287,0,0,0-.283-.035,1.234,1.234,0,0,0-1.2.858.907.907,0,0,0-.053.389,1.213,1.213,0,0,0,.858,1.119h0l1.072.309c1.421.477,2.6.876,3.658,1.234-1.924.648-3.552,1.234-4.384,1.511C601.079,351.312,600.93,351.366,600.8,351.42Z" transform="translate(-596.419 -338.346)" fill="#e40055"/>
            <path id="路径_38" data-name="路径 38" d="M616.495,373.422a1.249,1.249,0,0,0-1.753.465l-.145.254a.964.964,0,0,1-.831.494h-8.946v-1.5c.56,0,1.114,0,1.668,0,1.593,0,3.158.007,4.72-.01,2.014-.02,3.836-.43,3.909-3.247.074-2.935-1.4-3.889-3.889-3.951-.468-.01-.98-.015-1.6-.015l-1.061,0c-.756,0-1.513.007-2.269-.005a1.72,1.72,0,0,1-1.628-.887l-.015-.05a1.3,1.3,0,0,0-2.6,0c0,.019-.006.057-.008.077a1.736,1.736,0,0,1-1.562.863c-.7.008-1.393.005-2.089,0-.377,0-.752,0-1.127,0-.751,0-1.356.009-1.909.028-2.434.083-3.69,1.121-3.649,3.935s1.995,3.219,3.719,3.253c1.3.024,2.63.026,3.912.026.829,0,1.658,0,2.509.008h.092v1.48H591.514a1.339,1.339,0,0,0,0,2.675h22.253a3.513,3.513,0,0,0,3.028-1.8l.145-.254A1.372,1.372,0,0,0,616.495,373.422Zm-14.574-2.929c-.485,0-.969.006-1.45.011-.613.006-1.22.011-1.829.011-1.35,0-2.381-.03-3.347-.1-.528-.036-.771-.411-.771-1.015a.947.947,0,0,1,.887-.952c.934-.063,1.931-.094,3.233-.094.6,0,1.2.007,1.812.013.484.005.972.01,1.465.012Zm2.877-2.108c.483,0,.963-.006,1.44-.01q.91-.01,1.81-.01c1.371,0,2.418.029,3.394.1.179.01.757.038.757,1.034a.818.818,0,0,1-.859.939c-.927.064-1.919.094-3.215.094-.6,0-1.209-.007-1.824-.013-.5-.006-1-.01-1.5-.013Z" transform="translate(-590.157 -349.983)" fill="#e40055"/>
          </g>
        </g>
        <g id="组_68" data-name="组 68" transform="translate(0.492 32.377)">
          <g id="组_11" data-name="组 11" transform="translate(0 0.116)">
            <g id="组_6" data-name="组 6" transform="translate(0.933 0)">
              <path id="路径_39" data-name="路径 39" d="M597.775,426.462a.525.525,0,0,1-.372-.154l-2.555-2.547a2.622,2.622,0,0,1-.767-1.844v-5.323a.525.525,0,0,1,1.051,0v5.323a1.574,1.574,0,0,0,.46,1.106l2.556,2.547a.523.523,0,0,1-.372.892Z" transform="translate(-594.081 -416.072)" fill="#e40055"/>
            </g>
            <g id="组_7" data-name="组 7" transform="translate(0.08 1.533)">
              <path id="路径_40" data-name="路径 40" d="M596.314,421.5h-4.144a.523.523,0,1,1,0-1.046h4.144a.523.523,0,1,1,0,1.046Z" transform="translate(-591.644 -420.45)" fill="#e40055"/>
            </g>
            <g id="组_8" data-name="组 8" transform="translate(0 1.616)">
              <path id="路径_41" data-name="路径 41" d="M591.942,429.46a.528.528,0,0,1-.469-.286.522.522,0,0,1,.231-.7,5.443,5.443,0,0,0,3.048-4.5v-2.767a.525.525,0,0,1,1.051,0v2.778a6.489,6.489,0,0,1-3.622,5.417A.537.537,0,0,1,591.942,429.46Z" transform="translate(-591.417 -420.686)" fill="#e40055"/>
            </g>
            <g id="组_9" data-name="组 9" transform="translate(5.273)">
              <path id="路径_42" data-name="路径 42" d="M610.6,420.607H607.57a1.093,1.093,0,0,1-1.055-1.387l.818-2.773a.525.525,0,0,1,1.008.3l-.817,2.767,3.074.052a.188.188,0,0,0,.188-.188v-1.588a.525.525,0,0,1,1.051,0v1.588A1.238,1.238,0,0,1,610.6,420.607Z" transform="translate(-606.473 -416.072)" fill="#e40055"/>
            </g>
            <g id="组_10" data-name="组 10" transform="translate(5.284 5.304)">
              <path id="路径_43" data-name="路径 43" d="M610.424,436.207h-2.49a1.43,1.43,0,0,1-1.431-1.425v-2.14a1.43,1.43,0,0,1,1.431-1.425h2.49a1.43,1.43,0,0,1,1.431,1.425v2.14A1.43,1.43,0,0,1,610.424,436.207Zm-2.49-3.945a.38.38,0,0,0-.381.38v2.14a.38.38,0,0,0,.381.38h2.49a.38.38,0,0,0,.381-.38v-2.14a.38.38,0,0,0-.381-.38Z" transform="translate(-606.503 -431.216)" fill="#e40055"/>
            </g>
          </g>
          <g id="组_15" data-name="组 15" transform="translate(12.808 0.733)">
            <g id="组_12" data-name="组 12" transform="translate(0.262)">
              <path id="路径_44" data-name="路径 44" d="M637.309,418.88h-8.047a.523.523,0,1,1,0-1.046h8.047a.523.523,0,1,1,0,1.046Z" transform="translate(-628.736 -417.834)" fill="#e40055"/>
            </g>
            <g id="组_13" data-name="组 13" transform="translate(0 3.269)">
              <path id="路径_45" data-name="路径 45" d="M637.084,428.212h-8.572a.523.523,0,1,1,0-1.045h8.572a.523.523,0,1,1,0,1.045Z" transform="translate(-627.987 -427.167)" fill="#e40055"/>
            </g>
            <g id="组_14" data-name="组 14" transform="translate(2.322 0.212)">
              <path id="路径_46" data-name="路径 46" d="M636.166,427.9h-1.023a.523.523,0,1,1,0-1.045h1.023a1.363,1.363,0,0,0,1.364-1.358v-6.535a.525.525,0,0,1,1.051,0V425.5A2.412,2.412,0,0,1,636.166,427.9Z" transform="translate(-634.618 -418.438)" fill="#e40055"/>
            </g>
          </g>
          <g id="组_21" data-name="组 21" transform="translate(54.475 0.226)">
            <g id="组_16" data-name="组 16" transform="translate(0.416 0.26)">
              <path id="路径_47" data-name="路径 47" d="M749.488,420.152a.527.527,0,0,1-.486-.324l-.819-1.979a.521.521,0,0,1,.285-.682.527.527,0,0,1,.686.284l.819,1.979a.524.524,0,0,1-.486.722Z" transform="translate(-748.144 -417.127)" fill="#e40055"/>
            </g>
            <g id="组_17" data-name="组 17" transform="translate(0 4.772)">
              <path id="路径_48" data-name="路径 48" d="M747.481,435.247a.525.525,0,0,1-.49-.709l1.608-4.191a.526.526,0,0,1,.677-.3.52.52,0,0,1,.3.674l-1.608,4.191A.524.524,0,0,1,747.481,435.247Z" transform="translate(-746.956 -430.011)" fill="#e40055"/>
            </g>
            <g id="组_18" data-name="组 18" transform="translate(1.9 1.705)">
              <path id="路径_49" data-name="路径 49" d="M752.906,429.778a.523.523,0,0,1-.317-.939c1.818-1.37,2.4-5.125,2.593-6.36a.146.146,0,0,0-.035-.123.162.162,0,0,0-.124-.056h-1.506a.523.523,0,1,1,0-1.046h1.506a1.215,1.215,0,0,1,.922.421,1.2,1.2,0,0,1,.276.964c-.208,1.337-.84,5.407-3,7.033A.526.526,0,0,1,752.906,429.778Z" transform="translate(-752.381 -421.254)" fill="#e40055"/>
            </g>
            <g id="组_19" data-name="组 19" transform="translate(4.521)">
              <path id="路径_50" data-name="路径 50" d="M760.782,426.745h-.392a.523.523,0,1,1,0-1.046h.392a.644.644,0,0,0,.645-.642v-8.15a.525.525,0,0,1,1.051,0v8.15A1.693,1.693,0,0,1,760.782,426.745Z" transform="translate(-759.865 -416.385)" fill="#e40055"/>
            </g>
            <g id="组_20" data-name="组 20" transform="translate(6.836 1.08)">
              <path id="路径_51" data-name="路径 51" d="M769.766,428.553a.526.526,0,0,1-.48-.311l-2.765-6.2a.521.521,0,0,1,.165-.629l2.453-1.835a.527.527,0,0,1,.735.1.521.521,0,0,1-.1.732L767.65,422l2.6,5.823a.524.524,0,0,1-.48.734Z" transform="translate(-766.476 -419.47)" fill="#e40055"/>
            </g>
          </g>
          <g id="组_34" data-name="组 34" transform="translate(66.694 0.13)">
            <g id="组_22" data-name="组 22" transform="translate(8.426)">
              <path id="路径_52" data-name="路径 52" d="M806.426,423.728a.524.524,0,0,1-.525-.523v-6.569a.525.525,0,0,1,1.051,0v6.569A.524.524,0,0,1,806.426,423.728Z" transform="translate(-805.901 -416.113)" fill="#e40055"/>
            </g>
            <g id="组_32" data-name="组 32">
              <g id="组_23" data-name="组 23" transform="translate(0.356 0.301)">
                <path id="路径_53" data-name="路径 53" d="M784.036,419.278a.525.525,0,0,1-.467-.284l-.65-1.261a.524.524,0,0,1,.933-.477l.651,1.261a.52.52,0,0,1-.227.7A.515.515,0,0,1,784.036,419.278Z" transform="translate(-782.861 -416.972)" fill="#e40055"/>
              </g>
              <g id="组_24" data-name="组 24" transform="translate(0.356 3.055)">
                <path id="路径_54" data-name="路径 54" d="M784.036,427.143a.525.525,0,0,1-.467-.284l-.65-1.261a.524.524,0,0,1,.933-.477l.651,1.261a.524.524,0,0,1-.467.761Z" transform="translate(-782.861 -424.837)" fill="#e40055"/>
              </g>
              <g id="组_25" data-name="组 25" transform="translate(0 5.977)">
                <path id="路径_55" data-name="路径 55" d="M782.369,437.592a.524.524,0,0,1-.489-.713l1.318-3.366a.525.525,0,0,1,.979.38l-1.319,3.365A.526.526,0,0,1,782.369,437.592Z" transform="translate(-781.843 -433.18)" fill="#e40055"/>
              </g>
              <g id="组_26" data-name="组 26" transform="translate(2.532 0.997)">
                <path id="路径_56" data-name="路径 56" d="M796.353,420.005H789.6a.523.523,0,1,1,0-1.046h6.753a.523.523,0,1,1,0,1.046Z" transform="translate(-789.074 -418.96)" fill="#e40055"/>
              </g>
              <g id="组_27" data-name="组 27" transform="translate(2.532 6.716)">
                <path id="路径_57" data-name="路径 57" d="M796.353,436.334H789.6a.523.523,0,1,1,0-1.045h6.753a.523.523,0,1,1,0,1.045Z" transform="translate(-789.074 -435.289)" fill="#e40055"/>
              </g>
              <g id="组_28" data-name="组 28" transform="translate(3.413)">
                <path id="路径_58" data-name="路径 58" d="M792.114,423.728a.524.524,0,0,1-.525-.523v-6.569a.526.526,0,0,1,1.051,0v6.569A.524.524,0,0,1,792.114,423.728Z" transform="translate(-791.589 -416.113)" fill="#e40055"/>
              </g>
              <g id="组_29" data-name="组 29" transform="translate(3.642 2.904)">
                <path id="路径_59" data-name="路径 59" d="M797.3,425.45h-4.532a.523.523,0,1,1,0-1.046H797.3a.523.523,0,1,1,0,1.046Z" transform="translate(-792.243 -424.404)" fill="#e40055"/>
              </g>
              <g id="组_30" data-name="组 30" transform="translate(3.719 4.81)">
                <path id="路径_60" data-name="路径 60" d="M797.3,430.892h-4.313a.523.523,0,1,1,0-1.046H797.3a.523.523,0,1,1,0,1.046Z" transform="translate(-792.462 -429.846)" fill="#e40055"/>
              </g>
              <g id="组_31" data-name="组 31" transform="translate(2.307 8.035)">
                <path id="路径_61" data-name="路径 61" d="M788.955,441.492a.523.523,0,0,1-.393-.869l1.239-1.393a.528.528,0,0,1,.741-.045.522.522,0,0,1,.045.738l-1.239,1.393A.528.528,0,0,1,788.955,441.492Z" transform="translate(-788.43 -439.054)" fill="#e40055"/>
              </g>
            </g>
            <g id="组_33" data-name="组 33" transform="translate(8.027 8.035)">
              <path id="路径_62" data-name="路径 62" d="M806.527,441.493a.528.528,0,0,1-.394-.177l-1.239-1.393a.522.522,0,0,1,.045-.738.529.529,0,0,1,.742.045l1.239,1.393a.522.522,0,0,1-.045.738A.531.531,0,0,1,806.527,441.493Z" transform="translate(-804.763 -439.055)" fill="#e40055"/>
            </g>
          </g>
          <g id="组_47" data-name="组 47" transform="translate(78.597 0.235)">
            <g id="组_45" data-name="组 45">
              <g id="组_35" data-name="组 35" transform="translate(0.488 0.196)">
                <path id="路径_63" data-name="路径 63" d="M818.4,419.278a.525.525,0,0,1-.467-.284l-.65-1.261a.524.524,0,0,1,.933-.477l.65,1.261a.524.524,0,0,1-.467.761Z" transform="translate(-817.221 -416.972)" fill="#e40055"/>
              </g>
              <g id="组_36" data-name="组 36" transform="translate(0.488 2.95)">
                <path id="路径_64" data-name="路径 64" d="M818.4,427.143a.525.525,0,0,1-.467-.284l-.65-1.261a.524.524,0,0,1,.933-.477l.65,1.261a.524.524,0,0,1-.467.761Z" transform="translate(-817.221 -424.837)" fill="#e40055"/>
              </g>
              <g id="组_37" data-name="组 37" transform="translate(0 5.874)">
                <path id="路径_65" data-name="路径 65" d="M816.354,437.485a.543.543,0,0,1-.179-.031.522.522,0,0,1-.314-.67l1.188-3.256a.529.529,0,0,1,.673-.313.522.522,0,0,1,.314.669l-1.188,3.256A.526.526,0,0,1,816.354,437.485Z" transform="translate(-815.829 -433.184)" fill="#e40055"/>
              </g>
              <g id="组_38" data-name="组 38" transform="translate(2.39 0.937)">
                <path id="路径_66" data-name="路径 66" d="M825.99,420.134h-2.811a.523.523,0,1,1,0-1.046h2.811a.523.523,0,1,1,0,1.046Z" transform="translate(-822.653 -419.088)" fill="#e40055"/>
              </g>
              <g id="组_39" data-name="组 39" transform="translate(3.901)">
                <path id="路径_67" data-name="路径 67" d="M827.387,426.482a.418.418,0,0,1-.42-.417v-9.234a.42.42,0,0,1,.839,0v9.234A.418.418,0,0,1,827.387,426.482Z" transform="translate(-826.967 -416.413)" fill="#e40055"/>
              </g>
              <g id="组_40" data-name="组 40" transform="translate(2.196 2.561)">
                <path id="路径_68" data-name="路径 68" d="M822.493,431.207a.383.383,0,0,1-.106-.015.391.391,0,0,1-.273-.482,36.925,36.925,0,0,0,.476-6.592.393.393,0,0,1,.787-.005,36.557,36.557,0,0,1-.5,6.808A.393.393,0,0,1,822.493,431.207Z" transform="translate(-822.099 -423.724)" fill="#e40055"/>
              </g>
              <g id="组_41" data-name="组 41" transform="translate(5.171 2.561)">
                <path id="路径_69" data-name="路径 69" d="M830.985,431.206a.393.393,0,0,1-.393-.391v-6.7a.393.393,0,0,1,.787,0v6.7A.393.393,0,0,1,830.985,431.206Z" transform="translate(-830.592 -423.724)" fill="#e40055"/>
              </g>
              <g id="组_42" data-name="组 42" transform="translate(6.512 0.937)">
                <path id="路径_70" data-name="路径 70" d="M837.889,420.134h-2.943a.523.523,0,1,1,0-1.046h2.943a.523.523,0,1,1,0,1.046Z" transform="translate(-834.421 -419.088)" fill="#e40055"/>
              </g>
              <g id="组_43" data-name="组 43" transform="translate(8.023)">
                <path id="路径_71" data-name="路径 71" d="M839.155,426.482a.418.418,0,0,1-.42-.417v-9.234a.42.42,0,0,1,.839,0v9.234A.418.418,0,0,1,839.155,426.482Z" transform="translate(-838.735 -416.413)" fill="#e40055"/>
              </g>
              <g id="组_44" data-name="组 44" transform="translate(6.318 2.561)">
                <path id="路径_72" data-name="路径 72" d="M834.261,431.207a.379.379,0,0,1-.106-.015.391.391,0,0,1-.273-.482,36.916,36.916,0,0,0,.476-6.592.393.393,0,0,1,.787-.005,36.564,36.564,0,0,1-.5,6.808A.394.394,0,0,1,834.261,431.207Z" transform="translate(-833.868 -423.724)" fill="#e40055"/>
              </g>
            </g>
            <g id="组_46" data-name="组 46" transform="translate(9.292 2.561)">
              <path id="路径_73" data-name="路径 73" d="M842.754,431.206a.393.393,0,0,1-.393-.391v-6.7a.393.393,0,0,1,.787,0v6.7A.393.393,0,0,1,842.754,431.206Z" transform="translate(-842.361 -423.724)" fill="#e40055"/>
            </g>
          </g>
          <g id="组_51" data-name="组 51" transform="translate(90.668)">
            <g id="组_48" data-name="组 48" transform="translate(0.817)">
              <path id="路径_74" data-name="路径 74" d="M859.612,425.859h-3.866a.523.523,0,1,1,0-1.046h3.866a1.121,1.121,0,0,0,1.123-1.118v-1.974a.717.717,0,0,0-.718-.716H854.1a1.476,1.476,0,0,1-1.1-.5,1.459,1.459,0,0,1-.355-1.152l.421-3.162a.531.531,0,0,1,.59-.45.524.524,0,0,1,.452.587l-.42,3.161a.407.407,0,0,0,.1.326.418.418,0,0,0,.317.142h5.917a1.767,1.767,0,0,1,1.769,1.761V423.7A2.172,2.172,0,0,1,859.612,425.859Z" transform="translate(-852.628 -415.741)" fill="#e40055"/>
            </g>
            <g id="组_49" data-name="组 49" transform="translate(0 6.569)">
              <path id="路径_75" data-name="路径 75" d="M857.852,435.543H850.82a.523.523,0,1,1,0-1.046h7.032a.523.523,0,1,1,0,1.046Z" transform="translate(-850.295 -434.497)" fill="#e40055"/>
            </g>
            <g id="组_50" data-name="组 50" transform="translate(1.287 1.115)">
              <path id="路径_76" data-name="路径 76" d="M862.131,419.97h-7.637a.523.523,0,1,1,0-1.046h7.637a.523.523,0,1,1,0,1.046Z" transform="translate(-853.969 -418.924)" fill="#e40055"/>
            </g>
          </g>
          <g id="组_60" data-name="组 60" transform="translate(102.209 0.012)">
            <g id="组_52" data-name="组 52" transform="translate(0 1.103)">
              <path id="路径_77" data-name="路径 77" d="M893.1,419.97h-9.327a.523.523,0,1,1,0-1.046H893.1a.523.523,0,1,1,0,1.046Z" transform="translate(-883.246 -418.924)" fill="#e40055"/>
            </g>
            <g id="组_53" data-name="组 53" transform="translate(2.055)">
              <path id="路径_78" data-name="路径 78" d="M889.639,418.681a.524.524,0,0,1-.525-.523V416.3a.526.526,0,0,1,1.051,0v1.862A.524.524,0,0,1,889.639,418.681Z" transform="translate(-889.114 -415.774)" fill="#e40055"/>
            </g>
            <g id="组_54" data-name="组 54" transform="translate(7.148)">
              <path id="路径_79" data-name="路径 79" d="M904.181,418.681a.524.524,0,0,1-.525-.523V416.3a.525.525,0,0,1,1.051,0v1.862A.524.524,0,0,1,904.181,418.681Z" transform="translate(-903.656 -415.774)" fill="#e40055"/>
            </g>
            <g id="组_55" data-name="组 55" transform="translate(0.002 3.265)">
              <path id="路径_80" data-name="路径 80" d="M893.109,428.205a.527.527,0,0,1-.445-.244l-.827-1.3a1.35,1.35,0,0,0-1.091-.518h-4.6a1.376,1.376,0,0,0-1.046.462l-.878,1.363a.527.527,0,0,1-.726.156.521.521,0,0,1-.156-.723l.917-1.415a2.422,2.422,0,0,1,1.89-.888h4.6a2.392,2.392,0,0,1,1.966.985l.84,1.322a.524.524,0,0,1-.443.8Z" transform="translate(-883.252 -425.096)" fill="#e40055"/>
            </g>
            <g id="组_56" data-name="组 56" transform="translate(1.746 5.397)">
              <path id="路径_81" data-name="路径 81" d="M894.591,432.231h-5.835a.523.523,0,1,1,0-1.046h5.835a.523.523,0,1,1,0,1.046Z" transform="translate(-888.231 -431.185)" fill="#e40055"/>
            </g>
            <g id="组_57" data-name="组 57" transform="translate(2.989 4.661)">
              <path id="路径_82" data-name="路径 82" d="M892.774,434.528h-.467a.523.523,0,1,1,0-1.046h.467a.869.869,0,0,0,.871-.865v-3.011a.525.525,0,0,1,1.051,0v3.011A1.919,1.919,0,0,1,892.774,434.528Z" transform="translate(-891.781 -429.083)" fill="#e40055"/>
            </g>
            <g id="组_58" data-name="组 58" transform="translate(6.886 7.096)">
              <path id="路径_83" data-name="路径 83" d="M905.422,439.045a.525.525,0,0,1-.37-.152l-1.989-1.966a.52.52,0,0,1,0-.739.528.528,0,0,1,.742,0l1.989,1.967a.52.52,0,0,1,0,.739A.527.527,0,0,1,905.422,439.045Z" transform="translate(-902.908 -436.034)" fill="#e40055"/>
            </g>
            <g id="组_59" data-name="组 59" transform="translate(0.348 7.095)">
              <path id="路径_84" data-name="路径 84" d="M884.765,439.044a.527.527,0,0,1-.373-.155.52.52,0,0,1,0-.739l1.989-1.967a.527.527,0,0,1,.743,0,.52.52,0,0,1,0,.739l-1.989,1.966A.526.526,0,0,1,884.765,439.044Z" transform="translate(-884.24 -436.032)" fill="#e40055"/>
            </g>
          </g>
          <g id="组_66" data-name="组 66" transform="translate(24.603 0.535)">
            <g id="组_61" data-name="组 61" transform="translate(0.056)">
              <path id="路径_85" data-name="路径 85" d="M663.809,426.853a.55.55,0,0,1-.552-.549v-7.6a7.5,7.5,0,0,1-.711.344.549.549,0,0,1-.383-1.028c.16-.074,1.4-.7,1.4-.7a.552.552,0,0,1,.8.489V426.3A.55.55,0,0,1,663.809,426.853Z" transform="translate(-661.825 -417.268)" fill="#e40055"/>
            </g>
            <g id="组_62" data-name="组 62" transform="translate(0 8.899)">
              <path id="路径_86" data-name="路径 86" d="M665.167,443.774h-2.952a.549.549,0,1,1,0-1.1h2.952a.549.549,0,1,1,0,1.1Z" transform="translate(-661.664 -442.676)" fill="#e40055"/>
            </g>
            <g id="组_63" data-name="组 63" transform="translate(4.821 0)">
              <path id="路径_87" data-name="路径 87" d="M677.3,427.255h-1.051a.549.549,0,1,1,0-1.1H677.3a2.3,2.3,0,0,0,2.3-2.291v-.829a5.223,5.223,0,0,1-2.086.305h-.005a2.071,2.071,0,0,1-1.462-.576,2.263,2.263,0,0,1-.613-1.65v-1.753a2.1,2.1,0,0,1,2.106-2.1h1.059a2.1,2.1,0,0,1,2.105,2.1v4.5A3.4,3.4,0,0,1,677.3,427.255Zm.241-5.01a3.941,3.941,0,0,0,2.06-.406v-2.475a1,1,0,0,0-1-1h-1.059a1,1,0,0,0-1,1v1.753a1.2,1.2,0,0,0,.29.873,1,1,0,0,0,.713.256Z" transform="translate(-675.43 -417.269)" fill="#e40055"/>
            </g>
            <g id="组_64" data-name="组 64" transform="translate(11.215 0)">
              <path id="路径_88" data-name="路径 88" d="M695.55,427.255H694.5a.549.549,0,1,1,0-1.1h1.051a2.3,2.3,0,0,0,2.3-2.291v-.829a5.217,5.217,0,0,1-2.086.305h-.006a2.072,2.072,0,0,1-1.462-.576,2.264,2.264,0,0,1-.613-1.65v-1.753a2.1,2.1,0,0,1,2.106-2.1h1.059a2.1,2.1,0,0,1,2.105,2.1v2.763a.658.658,0,0,1,0,.066v1.673A3.4,3.4,0,0,1,695.55,427.255Zm.242-5.01a3.941,3.941,0,0,0,2.06-.406v-2.475a1,1,0,0,0-1-1h-1.059a1,1,0,0,0-1,1v1.753a1.2,1.2,0,0,0,.289.873,1,1,0,0,0,.713.256Z" transform="translate(-693.685 -417.269)" fill="#e40055"/>
            </g>
            <g id="组_65" data-name="组 65" transform="translate(17.435 0)">
              <path id="路径_89" data-name="路径 89" d="M713.9,427.3a.541.541,0,0,1-.14-.019.547.547,0,0,1-.393-.67l2.183-8.245H712a.549.549,0,1,1,0-1.1h4.268a.554.554,0,0,1,.437.214.545.545,0,0,1,.1.475l-2.366,8.933A.55.55,0,0,1,713.9,427.3Z" transform="translate(-711.446 -417.269)" fill="#e40055"/>
            </g>
          </g>
          <g id="组_67" data-name="组 67" transform="translate(50.19 4.394)">
            <path id="路径_90" data-name="路径 90" d="M736.649,429.248a.965.965,0,1,1-.965-.96A.962.962,0,0,1,736.649,429.248Z" transform="translate(-734.72 -428.288)" fill="#e40055"/>
          </g>
        </g>
      </g>
    </g>
  </g>
</svg>
